name analog
datacolumns 19
datarows 46
range 0.533 0.5555
endheader
time	ground_force_vx	ground_force_vy	ground_force_vz	ground_force_px	ground_force_py	ground_force_pz	l_ground_force_vx	l_ground_force_vy	l_ground_force_vz	l_ground_force_px	l_ground_force_py	l_ground_force_pz	ground_torque_x	ground_torque_y	ground_torque_z	l_ground_torque_x	l_ground_torque_y	l_ground_torque_z
0.533	-0.0	-0.0	-0.0	-0.0	-0.0	-0.0	0.0161380730569362	4.2233734130859375	-785.9403076171875	-0.0	-0.0	-0.0	-0.0	-0.0	-0.0	246923.5	-582.1422729492188	-6.994156360626221
0.5335	-0.0	-0.0	-0.0	-0.0	-0.0	-0.0	0.3226383328437805	4.7533392906188965	-786.4484252929688	-0.0	-0.0	-0.0	-0.0	-0.0	-0.0	246876.640625	-448.7907409667969	168.6520538330078
0.534	-0.0	-0.0	-0.0	-0.0	-0.0	-0.0	-0.3310418128967285	4.90570068359375	-788.7335205078125	-0.0	-0.0	-0.0	-0.0	-0.0	-0.0	247085.734375	-235.7124938964844	238.3229217529297
0.5345	-0.0	-0.0	-0.0	-0.0	-0.0	-0.0	-0.669082522392273	4.61616325378418	-788.03515625	-0.0	-0.0	-0.0	-0.0	-0.0	-0.0	247395.46875	-143.8082275390625	108.62845611572266
0.535	-0.0	-0.0	-0.0	-0.0	-0.0	-0.0	-1.467367172241211	5.30654764175415	-790.6051635742188	-0.0	-0.0	-0.0	-0.0	-0.0	-0.0	247670.84375	358.0814514160156	-148.01593017578125
0.5355	-0.0	-0.0	-0.0	-0.0	-0.0	-0.0	-1.7671021223068235	5.64376974105835	-794.5713500976562	-0.0	-0.0	-0.0	-0.0	-0.0	-0.0	248315.09375	394.9689331054688	-88.81536865234375
0.536	-0.0	-0.0	-0.0	-0.0	-0.0	-0.0	-1.0645294189453125	5.940274715423584	-799.6199340820312	-0.0	-0.0	-0.0	-0.0	-0.0	-0.0	249316.1875	497.7900085449219	11.407578468322754
0.5365	-0.0	-0.0	-0.0	-0.0	-0.0	-0.0	-0.8553163409233093	6.9049177169799805	-800.28173828125	-0.0	-0.0	-0.0	-0.0	-0.0	-0.0	250248.484375	590.0830078125	357.114013671875
0.537	-0.0	-0.0	-0.0	-0.0	-0.0	-0.0	0.6461997032165527	7.018328666687012	-804.7688598632812	-0.0	-0.0	-0.0	-0.0	-0.0	-0.0	250629.734375	435.4757690429688	562.7315673828125
0.5375	-0.0	-0.0	-0.0	-0.0	-0.0	-0.0	0.4847622513771057	6.977413177490234	-804.4453125	-0.0	-0.0	-0.0	-0.0	-0.0	-0.0	250763.84375	675.7456665039062	703.4644165039062
0.538	-0.0	-0.0	-0.0	-0.0	-0.0	-0.0	0.0984382256865501	6.535804748535156	-803.1348266601562	-0.0	-0.0	-0.0	-0.0	-0.0	-0.0	250084.6875	917.8648681640624	592.9813842773438
0.5385	-0.0	-0.0	-0.0	-0.0	-0.0	-0.0	-0.9028770327568054	5.927374362945557	-802.7384033203125	-0.0	-0.0	-0.0	-0.0	-0.0	-0.0	249814.40625	1307.0740966796875	346.2857666015625
0.539	-0.0	-0.0	-0.0	-0.0	-0.0	-0.0	-2.23918080329895	4.899026393890381	-801.1395874023438	-0.0	-0.0	-0.0	-0.0	-0.0	-0.0	249155.90625	1581.8338623046875	-24.75165557861328
0.5395	-0.0	-0.0	-0.0	-0.0	-0.0	-0.0	-3.193588256835937	3.797832489013672	-799.9278564453125	-0.0	-0.0	-0.0	-0.0	-0.0	-0.0	248307.640625	1850.51171875	-41.4666748046875
0.54	-0.0	-0.0	-0.0	-0.0	-0.0	-0.0	-3.710186243057251	2.712042570114136	-798.16064453125	-0.0	-0.0	-0.0	-0.0	-0.0	-0.0	247613.015625	2132.869140625	-204.3592987060547
0.5405	-0.0	-0.0	-0.0	-0.0	-0.0	-0.0	-3.652771472930908	2.280803203582764	-797.7300415039062	-0.0	-0.0	-0.0	-0.0	-0.0	-0.0	246688.96875	2426.697509765625	-92.70423889160156
0.541	-0.0	-0.0	-0.0	-0.0	-0.0	-0.0	-3.464560508728028	1.885802149772644	-795.532470703125	-0.0	-0.0	-0.0	-0.0	-0.0	-0.0	246484.21875	2597.56689453125	-254.93850708007807
0.5415	-0.0	-0.0	-0.0	-0.0	-0.0	-0.0	-3.710296869277954	1.8857309818267824	-795.2631225585938	-0.0	-0.0	-0.0	-0.0	-0.0	-0.0	245967.546875	2723.760009765625	-253.53077697753903
0.542	-0.0	-0.0	-0.0	-0.0	-0.0	-0.0	-3.2512454986572266	2.077775001525879	-795.18408203125	-0.0	-0.0	-0.0	-0.0	-0.0	-0.0	245443.625	2708.300537109375	-144.91270446777344
0.5425	-0.0	-0.0	-0.0	-0.0	-0.0	-0.0	-2.45292329788208	2.165984630584717	-795.6112670898438	-0.0	-0.0	-0.0	-0.0	-0.0	-0.0	245452.484375	3169.89111328125	47.774749755859375
0.543	-0.0	-0.0	-0.0	-0.0	-0.0	-0.0	-1.685504913330078	2.3425159454345703	-792.0582885742188	-0.0	-0.0	-0.0	-0.0	-0.0	-0.0	244355.671875	3046.99072265625	212.2115020751953
0.5435	-0.0	-0.0	-0.0	-0.0	-0.0	-0.0	-0.7251139879226685	2.1619620323181152	-790.9498291015625	-0.0	-0.0	-0.0	-0.0	-0.0	-0.0	243343.03125	3436.155517578125	410.1711120605469
0.544	-0.0	-0.0	-0.0	-0.0	-0.0	-0.0	-0.4127735197544098	1.6474666595458984	-789.12890625	-0.0	-0.0	-0.0	-0.0	-0.0	-0.0	242609.59375	3278.545654296875	509.5599365234375
0.5445	-0.0	-0.0	-0.0	-0.0	-0.0	-0.0	0.1006579995155334	1.2093234062194824	-787.672607421875	-0.0	-0.0	-0.0	-0.0	-0.0	-0.0	242013.28125	3685.90087890625	431.0767211914063
0.545	-0.0	-0.0	-0.0	-0.0	-0.0	-0.0	0.4742043614387512	0.8832168579101562	-785.3499145507812	-0.0	-0.0	-0.0	-0.0	-0.0	-0.0	240900.953125	3774.2060546875	563.0947265625
0.5455	-0.0	-0.0	-0.0	-0.0	-0.0	-0.0	0.4435539245605469	0.6486931443214417	-782.3885498046875	-0.0	-0.0	-0.0	-0.0	-0.0	-0.0	240208.34375	4207.0615234375	350.3282470703125
0.546	-0.0	-0.0	-0.0	-0.0	-0.0	-0.0	0.3395929038524627	0.7645284533500671	-780.4028930664062	-0.0	-0.0	-0.0	-0.0	-0.0	-0.0	239690.8125	4154.541015625	262.3125305175781
0.5465	-0.0	-0.0	-0.0	-0.0	-0.0	-0.0	-0.1900182664394378	1.2213475704193115	-780.1741333007812	-0.0	-0.0	-0.0	-0.0	-0.0	-0.0	239544.8125	4231.48779296875	113.74087524414062
0.547	-0.0	-0.0	-0.0	-0.0	-0.0	-0.0	0.1494521051645279	0.8251326084136963	-779.0767822265625	-0.0	-0.0	-0.0	-0.0	-0.0	-0.0	239070.046875	4607.3232421875	-0.4870668053627014
0.5475	-0.0	-0.0	-0.0	-0.0	-0.0	-0.0	-0.2812801897525787	1.0900230407714844	-779.885498046875	-0.0	-0.0	-0.0	-0.0	-0.0	-0.0	238991.8125	4758.27685546875	-248.09381103515625
0.548	-0.0	-0.0	-0.0	-0.0	-0.0	-0.0	-0.9173486232757568	0.9414304494857788	-779.0247192382812	-0.0	-0.0	-0.0	-0.0	-0.0	-0.0	239352.0625	4888.8427734375	-569.086181640625
0.5485	-0.0	-0.0	-0.0	-0.0	-0.0	-0.0	-1.1079915761947632	1.1181484460830688	-782.1589965820312	-0.0	-0.0	-0.0	-0.0	-0.0	-0.0	239553.765625	4879.02294921875	-776.8126220703125
0.549	-0.0	-0.0	-0.0	-0.0	-0.0	-0.0	-1.139756441116333	0.9131757020950316	-782.5079345703125	-0.0	-0.0	-0.0	-0.0	-0.0	-0.0	239971.46875	4847.68359375	-900.5619506835938
0.5495	-0.0	-0.0	-0.0	-0.0	-0.0	-0.0	-1.198269009590149	1.4715811014175415	-783.0343017578125	-0.0	-0.0	-0.0	-0.0	-0.0	-0.0	239864.890625	4806.0947265625	-949.7277221679688
0.55	-0.0	-0.0	-0.0	-0.0	-0.0	-0.0	-0.8732993602752686	1.3982322216033936	-783.3193359375	-0.0	-0.0	-0.0	-0.0	-0.0	-0.0	239725.9375	5231.3037109375	-1023.8711547851562
0.5505	-0.0	-0.0	-0.0	-0.0	-0.0	-0.0	-0.8572219014167786	1.2216261625289917	-781.691650390625	-0.0	-0.0	-0.0	-0.0	-0.0	-0.0	238854.078125	5406.8681640625	-1092.8720703125
0.551	-0.0	-0.0	-0.0	-0.0	-0.0	-0.0	-0.8431134819984436	1.030898928642273	-781.574462890625	-0.0	-0.0	-0.0	-0.0	-0.0	-0.0	238435.21875	5891.87451171875	-1004.1723022460938
0.5515	-0.0	-0.0	-0.0	-0.0	-0.0	-0.0	-1.0645294189453125	0.2353328913450241	-777.675537109375	-0.0	-0.0	-0.0	-0.0	-0.0	-0.0	237299.296875	6178.81884765625	-1122.95458984375
0.552	-0.0	-0.0	-0.0	-0.0	-0.0	-0.0	-2.395191192626953	-0.2065517604351043	-776.5117797851562	-0.0	-0.0	-0.0	-0.0	-0.0	-0.0	236454.0	6289.44921875	-1391.2379150390625
0.5525	-0.0	-0.0	-0.0	-0.0	-0.0	-0.0	-3.607529401779175	-1.707594871520996	-773.4868774414062	-0.0	-0.0	-0.0	-0.0	-0.0	-0.0	235379.484375	6929.27197265625	-1916.351318359375
0.553	-0.0	-0.0	-0.0	-0.0	-0.0	-0.0	-4.1398115158081055	-2.2816498279571533	-771.9160766601562	-0.0	-0.0	-0.0	-0.0	-0.0	-0.0	234816.0	7355.0498046875	-2233.256103515625
0.5535	-0.0	-0.0	-0.0	-0.0	-0.0	-0.0	-4.9233174324035645	-2.576005697250366	-769.587158203125	-0.0	-0.0	-0.0	-0.0	-0.0	-0.0	234071.375	7514.7978515625	-2530.6162109375
0.554	-0.0	-0.0	-0.0	-0.0	-0.0	-0.0	-5.011915683746338	-2.7970149517059326	-768.3650512695312	-0.0	-0.0	-0.0	-0.0	-0.0	-0.0	233312.734375	7616.044921875	-2733.366455078125
0.5545	-0.0	-0.0	-0.0	-0.0	-0.0	-0.0	-5.4560394287109375	-2.781808614730835	-768.0180053710938	-0.0	-0.0	-0.0	-0.0	-0.0	-0.0	232870.9375	7659.15869140625	-2797.91455078125
0.555	-0.0	-0.0	-0.0	-0.0	-0.0	-0.0	-6.180477142333984	-2.870018243789673	-768.540283203125	-0.0	-0.0	-0.0	-0.0	-0.0	-0.0	232832.46875	7667.732421875	-2932.07421875
0.5555	-0.0	-0.0	-0.0	-0.0	-0.0	-0.0	-5.662888526916504	-3.1650431156158447	-767.5458374023438	-0.0	-0.0	-0.0	-0.0	-0.0	-0.0	233134.6875	7967.76220703125	-2956.587646484375
